<svg width="48" height="44" viewBox="0 0 48 44" fill="none" xmlns="http://www.w3.org/2000/svg">
<path d="M41.57 10.0212H6.43001C4.00894 10.0212 2.04626 11.9839 2.04626 14.405V37.4787C2.04626 39.8998 4.00894 41.8625 6.43001 41.8625H41.57C43.9911 41.8625 45.9538 39.8998 45.9538 37.4787V14.405C45.9538 11.9839 43.9911 10.0212 41.57 10.0212Z" stroke="#60A5FA" stroke-width="3"/>
<path d="M14.7688 10.0212V4.0362C14.7688 3.53262 14.9688 3.04967 15.3249 2.69358C15.681 2.3375 16.164 2.13745 16.6675 2.13745H31.3325C31.8361 2.13745 32.3191 2.3375 32.6752 2.69358C33.0313 3.04967 33.2313 3.53262 33.2313 4.0362V10.0212" stroke="#60A5FA" stroke-width="3"/>
<path d="M32.5138 22.2624H27.535V17.2837H20.0188V22.2624H15.04V29.7787H20.0188V34.7662H27.535V29.7787H32.5138V22.2624Z" stroke="#60A5FA" stroke-width="3"/>
</svg>
