<svg width="48" height="30" viewBox="0 0 48 30" fill="none" xmlns="http://www.w3.org/2000/svg">
<path d="M46.2513 1.93628H1.74875V28.0725H46.2513V1.93628Z" stroke="#60A5FA" stroke-width="3"/>
<path d="M10.5425 1.80505C10.531 4.12215 9.60545 6.34108 7.96699 7.97953C6.32853 9.61799 4.10961 10.5436 1.79251 10.5551" stroke="#60A5FA" stroke-width="3"/>
<path d="M10.7963 28.0637C10.7963 25.7431 9.87439 23.5175 8.23345 21.8765C6.59251 20.2356 4.36691 19.3137 2.04626 19.3137" stroke="#60A5FA" stroke-width="3"/>
<path d="M37.615 1.80505C37.615 4.1257 38.5369 6.35129 40.1778 7.99224C41.8187 9.63318 44.0443 10.5551 46.365 10.5551" stroke="#60A5FA" stroke-width="3"/>
<path d="M37.4575 28.0637C37.4575 25.7431 38.3794 23.5175 40.0203 21.8765C41.6612 20.2356 43.8868 19.3137 46.2075 19.3137" stroke="#60A5FA" stroke-width="3"/>
<path d="M28.5675 10.835C28.2345 10.0462 27.6735 9.37485 26.9563 8.90714C26.2392 8.43942 25.3986 8.19666 24.5425 8.20999C20.9112 8.20999 20.7712 10.835 20.7712 10.835C20.7712 10.835 20.2287 14.0375 24.6737 14.3787C29.2937 14.7375 28.5675 17.9225 28.5675 17.9225C28.3599 18.7893 27.8586 19.5575 27.1488 20.0967C26.439 20.6358 25.5645 20.9126 24.6737 20.88C21.2437 21.055 20.185 17.45 20.185 17.45" stroke="#60A5FA" stroke-width="3"/>
<path d="M24.5425 5.93506V23.5401" stroke="#60A5FA" stroke-width="3"/>
</svg>
