<?xml version="1.0" encoding="UTF-8" standalone="no"?>
<svg
   id="visual"
   viewBox="0 0 1920 166"
   width="1920"
   height="166"
   version="1.1"
   sodipodi:docname="layered-waves-haikei_2.svg"
   inkscape:version="1.2.1 (9c6d41e410, 2022-07-14)"
   xmlns:inkscape="http://www.inkscape.org/namespaces/inkscape"
   xmlns:sodipodi="http://sodipodi.sourceforge.net/DTD/sodipodi-0.dtd"
   xmlns="http://www.w3.org/2000/svg"
   xmlns:svg="http://www.w3.org/2000/svg">
  <defs
     id="defs9" />
  <sodipodi:namedview
     id="namedview7"
     pagecolor="#ffffff"
     bordercolor="#000000"
     borderopacity="0.25"
     inkscape:showpageshadow="2"
     inkscape:pageopacity="0.0"
     inkscape:pagecheckerboard="0"
     inkscape:deskcolor="#d1d1d1"
     showgrid="false"
     inkscape:zoom="0.628125"
     inkscape:cx="960"
     inkscape:cy="149.65174"
     inkscape:window-width="1920"
     inkscape:window-height="1017"
     inkscape:window-x="-8"
     inkscape:window-y="-8"
     inkscape:window-maximized="1"
     inkscape:current-layer="visual" />
  <path
     d="m 0,166 53.3,-2.8 c 53.4,-2.9 160,-8.5 266.7,-17.7 106.7,-9.2 213.3,-21.8 320,-19.5 106.7,2.3 213.3,19.7 320,29.5 106.7,9.8 213.3,12.2 320,3 106.7,-9.2 213.3,-29.8 320,-36.2 106.7,-6.3 213.3,1.7 266.7,5.7 l 53.3,4 V 0 h -53.3 C 1813.3,0 1706.7,0 1600,0 1493.3,0 1386.7,0 1280,0 1173.3,0 1066.7,0 960,0 853.3,0 746.7,0 640,0 533.3,0 426.7,0 320,0 213.3,0 106.7,0 53.3,0 H 0 Z"
     fill="#f7faff"
     id="path2" />
  <path
     d="M 0,94 53.3,93.5 C 106.7,93 213.3,92 320,85.5 426.7,79 533.3,67 640,65.8 746.7,64.7 853.3,74.3 960,76 c 106.7,1.7 213.3,-4.7 320,-2.2 106.7,2.5 213.3,13.9 320,9.5 C 1706.7,79 1813.3,59 1866.7,49 L 1920,39 V 0 h -53.3 C 1813.3,0 1706.7,0 1600,0 1493.3,0 1386.7,0 1280,0 1173.3,0 1066.7,0 960,0 853.3,0 746.7,0 640,0 533.3,0 426.7,0 320,0 213.3,0 106.7,0 53.3,0 H 0 Z"
     fill="#eff6ff"
     id="path4" />
</svg>
