<svg width="60" height="60" viewBox="0 0 60 60" fill="none" xmlns="http://www.w3.org/2000/svg">
<path d="M58.8615 18.7153L31.4397 0.433964C30.5037 -0.142015 29.5048 -0.147288 28.5602 0.433964L1.13836 18.7153C0.435234 19.1839 0 20.0211 0 20.8581V39.1393C0 39.9763 0.435234 40.8134 1.13848 41.2821L28.5604 59.566C29.4963 60.142 30.4952 60.1473 31.4398 59.566L58.8616 41.2821C59.5648 40.8135 60.0001 39.9763 60.0001 39.1393V20.8581C60 20.0211 59.5648 19.1839 58.8615 18.7153V18.7153ZM32.5781 7.39809L52.7679 20.8581L43.7612 26.8849L32.5781 19.4183V7.39809ZM27.4219 7.39809V19.4183L16.2388 26.8849L7.23211 20.8581L27.4219 7.39809ZM5.15625 25.6795L11.6183 29.9987L5.15625 34.3179V25.6795ZM27.4219 52.5993L7.23211 39.1394L16.2388 33.1125L27.4219 40.5791V52.5993ZM30 36.0925L20.8928 29.9987L30 23.9049L39.1072 29.9987L30 36.0925ZM32.5781 52.5993V40.5791L43.7612 33.1125L52.7679 39.1394L32.5781 52.5993ZM54.8438 34.3179L48.3817 29.9987L54.8438 25.6795V34.3179Z" fill="white"/>
</svg>
