<svg width="125" height="125" viewBox="0 0 125 125" fill="none" xmlns="http://www.w3.org/2000/svg">
<g clip-path="url(#clip0_73_93)">
<path d="M124.225 60.623L92.3229 28.7209C91.3308 27.7289 89.5756 27.7289 88.5836 28.7209L81.6672 35.6373C80.6342 36.6703 80.6342 38.3449 81.6672 39.3779L104.784 62.492L81.6685 85.6101C80.6355 86.6431 80.6355 88.3176 81.6685 89.3507L88.5849 96.267C89.0809 96.763 89.7542 97.0435 90.4552 97.0435C91.1549 97.0435 91.8295 96.763 92.3255 96.267L124.225 64.3663C125.258 63.3319 125.258 61.6561 124.225 60.623Z" fill="#1E3A8A"/>
<path d="M43.3302 85.6101L20.2174 62.4946L43.3342 39.3805C43.8302 38.8845 44.1093 38.2126 44.1093 37.5103C44.1093 36.8092 43.8315 36.136 43.3342 35.64L36.4178 28.7236C35.9218 28.2276 35.2485 27.9485 34.5475 27.9485C33.8465 27.9485 33.1732 28.2276 32.6772 28.7236L0.773792 60.623C-0.259233 61.6561 -0.259233 63.3306 0.773792 64.3649L32.6759 96.2657C33.1719 96.7617 33.8451 97.0421 34.5462 97.0421C35.2472 97.0421 35.9205 96.7617 36.4165 96.2657L43.3328 89.3493C44.3659 88.3176 44.3659 86.6431 43.3302 85.6101Z" fill="#1E3A8A"/>
<path d="M80.6408 17.9886C80.3048 17.3723 79.7387 16.9146 79.0668 16.7162L73.4599 15.0615C72.0605 14.6462 70.587 15.4491 70.1743 16.8498L44.145 104.998C43.9466 105.671 44.0233 106.395 44.3579 107.01C44.6926 107.628 45.26 108.084 45.932 108.284L51.5389 109.938C51.7889 110.013 52.0415 110.048 52.2888 110.048C53.4303 110.048 54.4845 109.302 54.8244 108.15L80.8538 20.0005C81.0522 19.3272 80.9768 18.6037 80.6408 17.9886Z" fill="#1E3A8A"/>
</g>
<defs>
<clipPath id="clip0_73_93">
<rect width="125" height="125" fill="white"/>
</clipPath>
</defs>
</svg>
